# xmcd
#
# Track frame offsets: 
#        150
#        17700
#        38096
#        55132
#        76435
#        79816
#        95012
#        106448
#        122630
#        140842
#        158935
#        168260
#        188116
#        204406
#        218147
#        234586
#        256768
#        264201
#
# Disc length: 3602 seconds
#
# Revision: 0
# Processed by: cddbd v1.5.1PL0 Copyright (c) Steve Scherf et al.
# Submitted via: ExactAudioCopy v0.95a5
#
DISCID=f10e1012
DTITLE=Claude Bourbon - The Fifth
DYEAR=2004
DGENRE=Blues
TTITLE0=Solitude
TTITLE1=Play Me
TTITLE2=Travellin' Man
TTITLE3=You Don't Know
TTITLE4=Little Piece
TTITLE5=Worried Life Blues
TTITLE6=Louise
TTITLE7=Windsong
TTITLE8=Paranoia Blues
TTITLE9=Bolero
TTITLE10=Tzigane
TTITLE11=Hesitation Blues
TTITLE12=Pourquoi m'as tu quitté
TTITLE13=It's You I Love
TTITLE14=Police Dog Blues
TTITLE15=Summertime
TTITLE16=Hymne à la joie
TTITLE17=End (finale)
EXTD=
EXTT0=
EXTT1=
EXTT2=
EXTT3=
EXTT4=
EXTT5=
EXTT6=
EXTT7=
EXTT8=
EXTT9=
EXTT10=
EXTT11=
EXTT12=
EXTT13=
EXTT14=
EXTT15=
EXTT16=
EXTT17=
PLAYORDER=
